<svg width="211" height="208" viewBox="0 0 211 208" fill="none" xmlns="http://www.w3.org/2000/svg">
<g id="Frame" clip-path="url(#clip0_1_40158)">
<path id="Vector" d="M3.87849 7.6467C6.02052 7.6467 7.75698 5.93493 7.75698 3.82335C7.75698 1.71177 6.02052 0 3.87849 0C1.73646 0 0 1.71177 0 3.82335C0 5.93493 1.73646 7.6467 3.87849 7.6467Z" fill="#412884"/>
<path id="Vector_2" d="M3.87849 40.9729C6.02052 40.9729 7.75698 39.2611 7.75698 37.1495C7.75698 35.0379 6.02052 33.3262 3.87849 33.3262C1.73646 33.3262 0 35.0379 0 37.1495C0 39.2611 1.73646 40.9729 3.87849 40.9729Z" fill="#412884"/>
<path id="Vector_3" d="M3.87849 107.623C6.02052 107.623 7.75698 105.911 7.75698 103.8C7.75698 101.688 6.02052 99.9766 3.87849 99.9766C1.73646 99.9766 0 101.688 0 103.8C0 105.911 1.73646 107.623 3.87849 107.623Z" fill="#412884"/>
<path id="Vector_4" d="M3.87849 174.276C6.02052 174.276 7.75698 172.564 7.75698 170.452C7.75698 168.341 6.02052 166.629 3.87849 166.629C1.73646 166.629 0 168.341 0 170.452C0 172.564 1.73646 174.276 3.87849 174.276Z" fill="#412884"/>
<path id="Vector_5" d="M3.87849 207.6C6.02052 207.6 7.75698 205.888 7.75698 203.776C7.75698 201.665 6.02052 199.953 3.87849 199.953C1.73646 199.953 0 201.665 0 203.776C0 205.888 1.73646 207.6 3.87849 207.6Z" fill="#412884"/>
<path id="Vector_6" d="M3.87849 74.2971C6.02052 74.2971 7.75698 72.5853 7.75698 70.4737C7.75698 68.3622 6.02052 66.6504 3.87849 66.6504C1.73646 66.6504 0 68.3622 0 70.4737C0 72.5853 1.73646 74.2971 3.87849 74.2971Z" fill="#412884"/>
<path id="Vector_7" d="M3.87849 140.949C6.02052 140.949 7.75698 139.238 7.75698 137.126C7.75698 135.015 6.02052 133.303 3.87849 133.303C1.73646 133.303 0 135.015 0 137.126C0 139.238 1.73646 140.949 3.87849 140.949Z" fill="#412884"/>
<path id="Vector_8" d="M37.6851 7.6467C39.8272 7.6467 41.5636 5.93493 41.5636 3.82335C41.5636 1.71177 39.8272 0 37.6851 0C35.5431 0 33.8066 1.71177 33.8066 3.82335C33.8066 5.93493 35.5431 7.6467 37.6851 7.6467Z" fill="#412884"/>
<path id="Vector_9" d="M37.6851 40.9729C39.8272 40.9729 41.5636 39.2611 41.5636 37.1495C41.5636 35.0379 39.8272 33.3262 37.6851 33.3262C35.5431 33.3262 33.8066 35.0379 33.8066 37.1495C33.8066 39.2611 35.5431 40.9729 37.6851 40.9729Z" fill="#412884"/>
<path id="Vector_10" d="M37.6851 107.623C39.8272 107.623 41.5636 105.911 41.5636 103.8C41.5636 101.688 39.8272 99.9766 37.6851 99.9766C35.5431 99.9766 33.8066 101.688 33.8066 103.8C33.8066 105.911 35.5431 107.623 37.6851 107.623Z" fill="#412884"/>
<path id="Vector_11" d="M37.6851 174.276C39.8272 174.276 41.5636 172.564 41.5636 170.452C41.5636 168.341 39.8272 166.629 37.6851 166.629C35.5431 166.629 33.8066 168.341 33.8066 170.452C33.8066 172.564 35.5431 174.276 37.6851 174.276Z" fill="#412884"/>
<path id="Vector_12" d="M37.6851 207.6C39.8272 207.6 41.5636 205.888 41.5636 203.776C41.5636 201.665 39.8272 199.953 37.6851 199.953C35.5431 199.953 33.8066 201.665 33.8066 203.776C33.8066 205.888 35.5431 207.6 37.6851 207.6Z" fill="#412884"/>
<path id="Vector_13" d="M37.6851 74.2971C39.8272 74.2971 41.5636 72.5853 41.5636 70.4737C41.5636 68.3622 39.8272 66.6504 37.6851 66.6504C35.5431 66.6504 33.8066 68.3622 33.8066 70.4737C33.8066 72.5853 35.5431 74.2971 37.6851 74.2971Z" fill="#412884"/>
<path id="Vector_14" d="M37.6851 140.949C39.8272 140.949 41.5636 139.238 41.5636 137.126C41.5636 135.015 39.8272 133.303 37.6851 133.303C35.5431 133.303 33.8066 135.015 33.8066 137.126C33.8066 139.238 35.5431 140.949 37.6851 140.949Z" fill="#412884"/>
<path id="Vector_15" d="M71.4918 7.6467C73.6338 7.6467 75.3703 5.93493 75.3703 3.82335C75.3703 1.71177 73.6338 0 71.4918 0C69.3497 0 67.6133 1.71177 67.6133 3.82335C67.6133 5.93493 69.3497 7.6467 71.4918 7.6467Z" fill="#412884"/>
<path id="Vector_16" d="M71.4918 40.9729C73.6338 40.9729 75.3703 39.2611 75.3703 37.1495C75.3703 35.0379 73.6338 33.3262 71.4918 33.3262C69.3497 33.3262 67.6133 35.0379 67.6133 37.1495C67.6133 39.2611 69.3497 40.9729 71.4918 40.9729Z" fill="#412884"/>
<path id="Vector_17" d="M71.4918 107.623C73.6338 107.623 75.3703 105.911 75.3703 103.8C75.3703 101.688 73.6338 99.9766 71.4918 99.9766C69.3497 99.9766 67.6133 101.688 67.6133 103.8C67.6133 105.911 69.3497 107.623 71.4918 107.623Z" fill="#412884"/>
<path id="Vector_18" d="M71.4918 174.276C73.6338 174.276 75.3703 172.564 75.3703 170.452C75.3703 168.341 73.6338 166.629 71.4918 166.629C69.3497 166.629 67.6133 168.341 67.6133 170.452C67.6133 172.564 69.3497 174.276 71.4918 174.276Z" fill="#412884"/>
<path id="Vector_19" d="M71.4918 207.6C73.6338 207.6 75.3703 205.888 75.3703 203.776C75.3703 201.665 73.6338 199.953 71.4918 199.953C69.3497 199.953 67.6133 201.665 67.6133 203.776C67.6133 205.888 69.3497 207.6 71.4918 207.6Z" fill="#412884"/>
<path id="Vector_20" d="M71.4918 74.2971C73.6338 74.2971 75.3703 72.5853 75.3703 70.4737C75.3703 68.3622 73.6338 66.6504 71.4918 66.6504C69.3497 66.6504 67.6133 68.3622 67.6133 70.4737C67.6133 72.5853 69.3497 74.2971 71.4918 74.2971Z" fill="#412884"/>
<path id="Vector_21" d="M71.4918 140.949C73.6338 140.949 75.3703 139.238 75.3703 137.126C75.3703 135.015 73.6338 133.303 71.4918 133.303C69.3497 133.303 67.6133 135.015 67.6133 137.126C67.6133 139.238 69.3497 140.949 71.4918 140.949Z" fill="#412884"/>
<path id="Vector_22" d="M105.298 7.6467C107.44 7.6467 109.177 5.93493 109.177 3.82335C109.177 1.71177 107.44 0 105.298 0C103.156 0 101.42 1.71177 101.42 3.82335C101.42 5.93493 103.156 7.6467 105.298 7.6467Z" fill="#412884"/>
<path id="Vector_23" d="M105.298 40.9729C107.44 40.9729 109.177 39.2611 109.177 37.1495C109.177 35.0379 107.44 33.3262 105.298 33.3262C103.156 33.3262 101.42 35.0379 101.42 37.1495C101.42 39.2611 103.156 40.9729 105.298 40.9729Z" fill="#412884"/>
<path id="Vector_24" d="M105.298 107.623C107.44 107.623 109.177 105.911 109.177 103.8C109.177 101.688 107.44 99.9766 105.298 99.9766C103.156 99.9766 101.42 101.688 101.42 103.8C101.42 105.911 103.156 107.623 105.298 107.623Z" fill="#412884"/>
<path id="Vector_25" d="M105.298 174.276C107.44 174.276 109.177 172.564 109.177 170.452C109.177 168.341 107.44 166.629 105.298 166.629C103.156 166.629 101.42 168.341 101.42 170.452C101.42 172.564 103.156 174.276 105.298 174.276Z" fill="#412884"/>
<path id="Vector_26" d="M105.298 207.6C107.44 207.6 109.177 205.888 109.177 203.776C109.177 201.665 107.44 199.953 105.298 199.953C103.156 199.953 101.42 201.665 101.42 203.776C101.42 205.888 103.156 207.6 105.298 207.6Z" fill="#412884"/>
<path id="Vector_27" d="M105.298 74.2971C107.44 74.2971 109.177 72.5853 109.177 70.4737C109.177 68.3622 107.44 66.6504 105.298 66.6504C103.156 66.6504 101.42 68.3622 101.42 70.4737C101.42 72.5853 103.156 74.2971 105.298 74.2971Z" fill="#412884"/>
<path id="Vector_28" d="M105.298 140.949C107.44 140.949 109.177 139.238 109.177 137.126C109.177 135.015 107.44 133.303 105.298 133.303C103.156 133.303 101.42 135.015 101.42 137.126C101.42 139.238 103.156 140.949 105.298 140.949Z" fill="#412884"/>
<path id="Vector_29" d="M139.103 7.6467C141.245 7.6467 142.982 5.93493 142.982 3.82335C142.982 1.71177 141.245 0 139.103 0C136.961 0 135.225 1.71177 135.225 3.82335C135.225 5.93493 136.961 7.6467 139.103 7.6467Z" fill="#412884"/>
<path id="Vector_30" d="M139.103 40.9729C141.245 40.9729 142.982 39.2611 142.982 37.1495C142.982 35.0379 141.245 33.3262 139.103 33.3262C136.961 33.3262 135.225 35.0379 135.225 37.1495C135.225 39.2611 136.961 40.9729 139.103 40.9729Z" fill="#412884"/>
<path id="Vector_31" d="M139.103 107.623C141.245 107.623 142.982 105.911 142.982 103.8C142.982 101.688 141.245 99.9766 139.103 99.9766C136.961 99.9766 135.225 101.688 135.225 103.8C135.225 105.911 136.961 107.623 139.103 107.623Z" fill="#412884"/>
<path id="Vector_32" d="M139.103 174.276C141.245 174.276 142.982 172.564 142.982 170.452C142.982 168.341 141.245 166.629 139.103 166.629C136.961 166.629 135.225 168.341 135.225 170.452C135.225 172.564 136.961 174.276 139.103 174.276Z" fill="#412884"/>
<path id="Vector_33" d="M139.103 207.6C141.245 207.6 142.982 205.888 142.982 203.776C142.982 201.665 141.245 199.953 139.103 199.953C136.961 199.953 135.225 201.665 135.225 203.776C135.225 205.888 136.961 207.6 139.103 207.6Z" fill="#412884"/>
<path id="Vector_34" d="M139.103 74.2971C141.245 74.2971 142.982 72.5853 142.982 70.4737C142.982 68.3622 141.245 66.6504 139.103 66.6504C136.961 66.6504 135.225 68.3622 135.225 70.4737C135.225 72.5853 136.961 74.2971 139.103 74.2971Z" fill="#412884"/>
<path id="Vector_35" d="M139.103 140.949C141.245 140.949 142.982 139.238 142.982 137.126C142.982 135.015 141.245 133.303 139.103 133.303C136.961 133.303 135.225 135.015 135.225 137.126C135.225 139.238 136.961 140.949 139.103 140.949Z" fill="#412884"/>
<path id="Vector_36" d="M172.91 7.6467C175.052 7.6467 176.788 5.93493 176.788 3.82335C176.788 1.71177 175.052 0 172.91 0C170.768 0 169.031 1.71177 169.031 3.82335C169.031 5.93493 170.768 7.6467 172.91 7.6467Z" fill="#412884"/>
<path id="Vector_37" d="M172.91 40.9729C175.052 40.9729 176.788 39.2611 176.788 37.1495C176.788 35.0379 175.052 33.3262 172.91 33.3262C170.768 33.3262 169.031 35.0379 169.031 37.1495C169.031 39.2611 170.768 40.9729 172.91 40.9729Z" fill="#412884"/>
<path id="Vector_38" d="M172.91 107.623C175.052 107.623 176.788 105.911 176.788 103.8C176.788 101.688 175.052 99.9766 172.91 99.9766C170.768 99.9766 169.031 101.688 169.031 103.8C169.031 105.911 170.768 107.623 172.91 107.623Z" fill="#412884"/>
<path id="Vector_39" d="M172.91 174.276C175.052 174.276 176.788 172.564 176.788 170.452C176.788 168.341 175.052 166.629 172.91 166.629C170.768 166.629 169.031 168.341 169.031 170.452C169.031 172.564 170.768 174.276 172.91 174.276Z" fill="#412884"/>
<path id="Vector_40" d="M172.91 207.6C175.052 207.6 176.788 205.888 176.788 203.776C176.788 201.665 175.052 199.953 172.91 199.953C170.768 199.953 169.031 201.665 169.031 203.776C169.031 205.888 170.768 207.6 172.91 207.6Z" fill="#412884"/>
<path id="Vector_41" d="M172.91 74.2971C175.052 74.2971 176.788 72.5853 176.788 70.4737C176.788 68.3622 175.052 66.6504 172.91 66.6504C170.768 66.6504 169.031 68.3622 169.031 70.4737C169.031 72.5853 170.768 74.2971 172.91 74.2971Z" fill="#412884"/>
<path id="Vector_42" d="M172.91 140.949C175.052 140.949 176.788 139.238 176.788 137.126C176.788 135.015 175.052 133.303 172.91 133.303C170.768 133.303 169.031 135.015 169.031 137.126C169.031 139.238 170.768 140.949 172.91 140.949Z" fill="#412884"/>
<path id="Vector_43" d="M206.716 7.6467C208.858 7.6467 210.595 5.93493 210.595 3.82335C210.595 1.71177 208.858 0 206.716 0C204.574 0 202.838 1.71177 202.838 3.82335C202.838 5.93493 204.574 7.6467 206.716 7.6467Z" fill="#412884"/>
<path id="Vector_44" d="M206.716 40.9729C208.858 40.9729 210.595 39.2611 210.595 37.1495C210.595 35.0379 208.858 33.3262 206.716 33.3262C204.574 33.3262 202.838 35.0379 202.838 37.1495C202.838 39.2611 204.574 40.9729 206.716 40.9729Z" fill="#412884"/>
<path id="Vector_45" d="M206.716 107.623C208.858 107.623 210.595 105.911 210.595 103.8C210.595 101.688 208.858 99.9766 206.716 99.9766C204.574 99.9766 202.838 101.688 202.838 103.8C202.838 105.911 204.574 107.623 206.716 107.623Z" fill="#412884"/>
<path id="Vector_46" d="M206.716 174.276C208.858 174.276 210.595 172.564 210.595 170.452C210.595 168.341 208.858 166.629 206.716 166.629C204.574 166.629 202.838 168.341 202.838 170.452C202.838 172.564 204.574 174.276 206.716 174.276Z" fill="#412884"/>
<path id="Vector_47" d="M206.716 207.6C208.858 207.6 210.595 205.888 210.595 203.776C210.595 201.665 208.858 199.953 206.716 199.953C204.574 199.953 202.838 201.665 202.838 203.776C202.838 205.888 204.574 207.6 206.716 207.6Z" fill="#412884"/>
<path id="Vector_48" d="M206.716 74.2971C208.858 74.2971 210.595 72.5853 210.595 70.4737C210.595 68.3622 208.858 66.6504 206.716 66.6504C204.574 66.6504 202.838 68.3622 202.838 70.4737C202.838 72.5853 204.574 74.2971 206.716 74.2971Z" fill="#412884"/>
<path id="Vector_49" d="M206.716 140.949C208.858 140.949 210.595 139.238 210.595 137.126C210.595 135.015 208.858 133.303 206.716 133.303C204.574 133.303 202.838 135.015 202.838 137.126C202.838 139.238 204.574 140.949 206.716 140.949Z" fill="#412884"/>
</g>
<defs>
<clipPath id="clip0_1_40158">
<rect width="211" height="208" fill="white"/>
</clipPath>
</defs>
</svg>
