<svg width="197" height="56" viewBox="0 0 197 56" fill="none" xmlns="http://www.w3.org/2000/svg">
<g clip-path="url(#clip0_70_8769)">
<mask id="mask0_70_8769" style="mask-type:luminance" maskUnits="userSpaceOnUse" x="-114" y="-122" width="489" height="294">
<path d="M-113.086 171.684H374.827V-121.065H-113.086V171.684Z" fill="white"/>
</mask>
<g mask="url(#mask0_70_8769)">
<path d="M61.4744 1.94196H74.9531C86.0738 1.94196 95.8457 11.7971 95.8457 23.3509C95.8457 34.9039 86.0738 44.7598 74.9531 44.7598C67.5091 44.7598 61.4744 38.6741 61.4744 31.1674V1.94196ZM74.9531 36.9432C81.6929 36.9432 87.7592 30.7591 87.7592 23.3509C87.7592 15.9426 81.6929 9.7585 74.9531 9.7585H69.5615V31.5055C69.5615 34.5087 71.9754 36.9432 74.9531 36.9432Z" fill="#F2F2F2"/>
</g>
<mask id="mask1_70_8769" style="mask-type:luminance" maskUnits="userSpaceOnUse" x="-114" y="-122" width="489" height="294">
<path d="M-113.086 171.684H374.827V-121.065H-113.086V171.684Z" fill="white"/>
</mask>
<g mask="url(#mask1_70_8769)">
<path d="M104.875 13.0006C107.015 13.0006 108.75 14.7356 108.75 16.8754V30.5484C108.75 34.5912 111.38 37.2874 115.153 37.2874C118.928 37.2874 121.556 34.5912 121.556 30.5484V16.8761C121.556 14.7356 123.291 13.0006 125.432 13.0006C127.572 13.0006 129.307 14.7356 129.307 16.8761V38.6355C129.307 41.7991 126.742 44.3645 123.578 44.3645L122.23 41.3317C121.489 41.9375 120.613 42.5441 119.736 43.0164C118.186 43.8922 115.962 44.7012 113.469 44.7012C106.122 44.7012 101 39.6462 101 31.5598V16.8754C101 14.7356 102.736 13.0006 104.875 13.0006Z" fill="#F2F2F2"/>
</g>
<mask id="mask2_70_8769" style="mask-type:luminance" maskUnits="userSpaceOnUse" x="-114" y="-122" width="489" height="294">
<path d="M-113.086 171.684H374.827V-121.065H-113.086V171.684Z" fill="white"/>
</mask>
<g mask="url(#mask2_70_8769)">
<path d="M138.402 1.94181C140.542 1.94181 142.277 3.67683 142.277 5.81669V16.0946C142.884 15.5555 143.625 15.0839 144.434 14.6123C145.849 13.8708 147.736 13.0618 150.364 13.0618C158.116 13.0618 164.855 19.734 164.855 28.9007C164.855 38.066 158.116 44.7383 150.364 44.7383C147.668 44.7383 145.513 43.9286 143.961 43.0528C143.086 42.5812 142.277 41.9746 141.603 41.3681L140.256 44.4009C137.092 44.4009 134.527 41.8363 134.527 38.6719V5.81669C134.527 3.67683 136.262 1.94181 138.402 1.94181ZM157.778 28.9007C157.778 23.7783 154.409 20.4755 150.028 20.4755C145.647 20.4755 142.277 23.7783 142.277 28.9007C142.277 34.0218 145.647 37.3245 150.028 37.3245C154.409 37.3245 157.778 34.0218 157.778 28.9007Z" fill="#F2F2F2"/>
</g>
<mask id="mask3_70_8769" style="mask-type:luminance" maskUnits="userSpaceOnUse" x="-114" y="-122" width="489" height="294">
<path d="M-113.086 171.684H374.827V-121.065H-113.086V171.684Z" fill="white"/>
</mask>
<g mask="url(#mask3_70_8769)">
<path d="M169.963 55.0474C169.963 52.0565 171.535 49.3851 173.923 47.5978C174.886 46.8749 175.547 45.8552 176.053 44.6662L176.731 42.9663L167.888 20.6375C166.449 17.0036 169.115 13.0578 173.009 13.0578L180.792 33.4505L185.216 20.7566C186.823 16.1451 191.157 13.0578 196.022 13.0578L189.998 28.5559C186.952 36.4413 183.906 44.598 183.5 45.3457C180.454 52.7547 177.746 55.541 172.67 55.541C171.926 55.541 171.249 55.4742 170.775 55.4061L169.963 55.2016V55.0474Z" fill="#F2F2F2"/>
</g>
<mask id="mask4_70_8769" style="mask-type:luminance" maskUnits="userSpaceOnUse" x="-114" y="-122" width="489" height="294">
<path d="M-113.086 171.684H374.827V-121.065H-113.086V171.684Z" fill="white"/>
</mask>
<g mask="url(#mask4_70_8769)">
<path d="M41.126 1.08624L41.1247 1.08349L29.7837 7.63112C26.7694 9.37165 23.4123 6.53365 19.7832 8.62876C15.4773 11.1149 17.4699 14.7406 13.9193 16.7902L2.57829 23.3379L2.57898 23.3393C0.589906 24.4932 -0.0910215 27.0392 1.05946 29.0318C1.96277 30.5974 3.72809 31.3548 5.41078 31.0518C6.2659 30.8983 7.13341 31.2274 7.56785 31.9799L9.64712 35.5822C14.8907 44.6642 26.7371 48.6024 36.6425 44.923C37.1582 44.7316 37.7276 44.7179 38.2274 44.9464C38.9875 45.2948 39.8957 45.2859 40.6751 44.8356C41.4538 44.386 41.9157 43.6059 41.9956 42.7749C42.0479 42.2276 42.3447 41.7408 42.7688 41.3903C50.9137 34.6575 53.4399 22.4146 48.1935 13.3271L46.159 9.80334C45.7183 9.04048 45.7941 8.08003 46.3641 7.40874C47.4726 6.10403 47.7026 4.19345 46.7972 2.62504C45.6502 0.63872 43.1172 -0.0449605 41.126 1.08624ZM41.1543 17.3913C44.6863 23.5086 42.2992 32.236 35.6346 36.0841C28.9602 39.9369 20.208 37.6408 16.6767 31.5234L14.9024 28.4507C14.3207 27.4434 14.6656 26.1545 15.6736 25.5727L36.5021 13.5474C37.51 12.9656 38.7989 13.3106 39.3807 14.3185L41.1543 17.3913Z" fill="#F2F2F2"/>
</g>
</g>
<defs>
<clipPath id="clip0_70_8769">
<rect width="195.522" height="55" fill="white" transform="translate(0.5 0.542969)"/>
</clipPath>
</defs>
</svg>
